<svg width="219" height="39" viewBox="0 0 219 39" fill="none" xmlns="http://www.w3.org/2000/svg">
<path d="M20.168 18.632C20.168 19.208 20.132 19.808 20.06 20.432H6.128C6.224 21.68 6.62 22.64 7.316 23.312C8.036 23.96 8.912 24.284 9.944 24.284C11.48 24.284 12.548 23.636 13.148 22.34H19.7C19.364 23.66 18.752 24.848 17.864 25.904C17 26.96 15.908 27.788 14.588 28.388C13.268 28.988 11.792 29.288 10.16 29.288C8.192 29.288 6.44 28.868 4.904 28.028C3.368 27.188 2.168 25.988 1.304 24.428C0.44 22.868 0.00800003 21.044 0.00800003 18.956C0.00800003 16.868 0.428 15.044 1.268 13.484C2.132 11.924 3.332 10.724 4.868 9.884C6.404 9.044 8.168 8.624 10.16 8.624C12.104 8.624 13.832 9.032 15.344 9.848C16.856 10.664 18.032 11.828 18.872 13.34C19.736 14.852 20.168 16.616 20.168 18.632ZM13.868 17.012C13.868 15.956 13.508 15.116 12.788 14.492C12.068 13.868 11.168 13.556 10.088 13.556C9.056 13.556 8.18 13.856 7.46 14.456C6.764 15.056 6.332 15.908 6.164 17.012H13.868ZM35.6556 8.696C38.0076 8.696 39.8796 9.464 41.2716 11C42.6876 12.512 43.3956 14.6 43.3956 17.264V29H37.2756V18.092C37.2756 16.748 36.9276 15.704 36.2316 14.96C35.5356 14.216 34.5996 13.844 33.4236 13.844C32.2476 13.844 31.3116 14.216 30.6156 14.96C29.9196 15.704 29.5716 16.748 29.5716 18.092V29H23.4156V8.912H29.5716V11.576C30.1956 10.688 31.0356 9.992 32.0916 9.488C33.1476 8.96 34.3356 8.696 35.6556 8.696ZM46.4494 18.956C46.4494 16.868 46.8694 15.044 47.7094 13.484C48.5734 11.924 49.7614 10.724 51.2734 9.884C52.8094 9.044 54.5614 8.624 56.5294 8.624C59.0494 8.624 61.1494 9.284 62.8294 10.604C64.5334 11.924 65.6494 13.784 66.1774 16.184H59.6254C59.0734 14.648 58.0054 13.88 56.4214 13.88C55.2934 13.88 54.3934 14.324 53.7214 15.212C53.0494 16.076 52.7134 17.324 52.7134 18.956C52.7134 20.588 53.0494 21.848 53.7214 22.736C54.3934 23.6 55.2934 24.032 56.4214 24.032C58.0054 24.032 59.0734 23.264 59.6254 21.728H66.1774C65.6494 24.08 64.5334 25.928 62.8294 27.272C61.1254 28.616 59.0254 29.288 56.5294 29.288C54.5614 29.288 52.8094 28.868 51.2734 28.028C49.7614 27.188 48.5734 25.988 47.7094 24.428C46.8694 22.868 46.4494 21.044 46.4494 18.956ZM75.6263 12.26C76.3463 11.156 77.2463 10.292 78.3263 9.668C79.4063 9.02 80.6063 8.696 81.9263 8.696V15.212H80.2343C78.6983 15.212 77.5463 15.548 76.7783 16.22C76.0103 16.868 75.6263 18.02 75.6263 19.676V29H69.4703V8.912H75.6263V12.26ZM87.9647 6.824C86.8847 6.824 85.9967 6.512 85.3007 5.888C84.6287 5.24 84.2927 4.448 84.2927 3.512C84.2927 2.552 84.6287 1.76 85.3007 1.136C85.9967 0.487998 86.8847 0.163998 87.9647 0.163998C89.0207 0.163998 89.8847 0.487998 90.5567 1.136C91.2527 1.76 91.6007 2.552 91.6007 3.512C91.6007 4.448 91.2527 5.24 90.5567 5.888C89.8847 6.512 89.0207 6.824 87.9647 6.824ZM91.0247 8.912V29H84.8687V8.912H91.0247ZM101.642 11.756C102.242 10.82 103.07 10.064 104.126 9.488C105.182 8.912 106.418 8.624 107.834 8.624C109.49 8.624 110.99 9.044 112.334 9.884C113.678 10.724 114.734 11.924 115.502 13.484C116.294 15.044 116.69 16.856 116.69 18.92C116.69 20.984 116.294 22.808 115.502 24.392C114.734 25.952 113.678 27.164 112.334 28.028C110.99 28.868 109.49 29.288 107.834 29.288C106.442 29.288 105.206 29 104.126 28.424C103.07 27.848 102.242 27.104 101.642 26.192V38.576H95.4859V8.912H101.642V11.756ZM110.426 18.92C110.426 17.384 109.994 16.184 109.13 15.32C108.29 14.432 107.246 13.988 105.998 13.988C104.774 13.988 103.73 14.432 102.866 15.32C102.026 16.208 101.606 17.42 101.606 18.956C101.606 20.492 102.026 21.704 102.866 22.592C103.73 23.48 104.774 23.924 105.998 23.924C107.222 23.924 108.266 23.48 109.13 22.592C109.994 21.68 110.426 20.456 110.426 18.92ZM131.116 23.78V29H127.984C125.752 29 124.012 28.46 122.764 27.38C121.516 26.276 120.892 24.488 120.892 22.016V14.024H118.444V8.912H120.892V4.016H127.048V8.912H131.08V14.024H127.048V22.088C127.048 22.688 127.192 23.12 127.48 23.384C127.768 23.648 128.248 23.78 128.92 23.78H131.116ZM133.321 18.92C133.321 16.856 133.705 15.044 134.473 13.484C135.265 11.924 136.333 10.724 137.677 9.884C139.021 9.044 140.521 8.624 142.177 8.624C143.593 8.624 144.829 8.912 145.885 9.488C146.965 10.064 147.793 10.82 148.369 11.756V8.912H154.525V29H148.369V26.156C147.769 27.092 146.929 27.848 145.849 28.424C144.793 29 143.557 29.288 142.141 29.288C140.509 29.288 139.021 28.868 137.677 28.028C136.333 27.164 135.265 25.952 134.473 24.392C133.705 22.808 133.321 20.984 133.321 18.92ZM148.369 18.956C148.369 17.42 147.937 16.208 147.073 15.32C146.233 14.432 145.201 13.988 143.977 13.988C142.753 13.988 141.709 14.432 140.845 15.32C140.005 16.184 139.585 17.384 139.585 18.92C139.585 20.456 140.005 21.68 140.845 22.592C141.709 23.48 142.753 23.924 143.977 23.924C145.201 23.924 146.233 23.48 147.073 22.592C147.937 21.704 148.369 20.492 148.369 18.956ZM157.754 18.92C157.754 16.856 158.138 15.044 158.906 13.484C159.698 11.924 160.766 10.724 162.11 9.884C163.454 9.044 164.954 8.624 166.61 8.624C167.93 8.624 169.13 8.9 170.21 9.452C171.314 10.004 172.178 10.748 172.802 11.684V2.36H178.958V29H172.802V26.12C172.226 27.08 171.398 27.848 170.318 28.424C169.262 29 168.026 29.288 166.61 29.288C164.954 29.288 163.454 28.868 162.11 28.028C160.766 27.164 159.698 25.952 158.906 24.392C158.138 22.808 157.754 20.984 157.754 18.92ZM172.802 18.956C172.802 17.42 172.37 16.208 171.506 15.32C170.666 14.432 169.634 13.988 168.41 13.988C167.186 13.988 166.142 14.432 165.278 15.32C164.438 16.184 164.018 17.384 164.018 18.92C164.018 20.456 164.438 21.68 165.278 22.592C166.142 23.48 167.186 23.924 168.41 23.924C169.634 23.924 170.666 23.48 171.506 22.592C172.37 21.704 172.802 20.492 172.802 18.956ZM192.556 29.288C190.588 29.288 188.812 28.868 187.228 28.028C185.668 27.188 184.432 25.988 183.52 24.428C182.632 22.868 182.188 21.044 182.188 18.956C182.188 16.892 182.644 15.08 183.556 13.52C184.468 11.936 185.716 10.724 187.3 9.884C188.884 9.044 190.66 8.624 192.628 8.624C194.596 8.624 196.372 9.044 197.956 9.884C199.54 10.724 200.788 11.936 201.7 13.52C202.612 15.08 203.068 16.892 203.068 18.956C203.068 21.02 202.6 22.844 201.664 24.428C200.752 25.988 199.492 27.188 197.884 28.028C196.3 28.868 194.524 29.288 192.556 29.288ZM192.556 23.96C193.732 23.96 194.728 23.528 195.544 22.664C196.384 21.8 196.804 20.564 196.804 18.956C196.804 17.348 196.396 16.112 195.58 15.248C194.788 14.384 193.804 13.952 192.628 13.952C191.428 13.952 190.432 14.384 189.64 15.248C188.848 16.088 188.452 17.324 188.452 18.956C188.452 20.564 188.836 21.8 189.604 22.664C190.396 23.528 191.38 23.96 192.556 23.96ZM212.49 12.26C213.21 11.156 214.11 10.292 215.19 9.668C216.27 9.02 217.47 8.696 218.79 8.696V15.212H217.098C215.562 15.212 214.41 15.548 213.642 16.22C212.874 16.868 212.49 18.02 212.49 19.676V29H206.334V8.912H212.49V12.26Z" fill="#F3F5F8"/>
</svg>
