<svg width="24" height="24" viewBox="0 0 24 24" fill="none" xmlns="http://www.w3.org/2000/svg">
<path d="M10.653 0.0856765C5.12175 0.70459 0.672741 5.28455 0.0715229 10.8548C-0.529695 16.6725 2.71688 21.8714 7.64687 23.8519C8.0076 23.9757 8.36833 23.7282 8.36833 23.233V21.2525C8.36833 21.2525 7.88736 21.3763 7.28614 21.3763C5.60273 21.3763 4.88127 19.8909 4.76102 19.0244C4.64078 18.5293 4.40029 18.1579 4.03956 17.7866C3.67883 17.6628 3.55859 17.6628 3.55859 17.539C3.55859 17.2915 3.91932 17.2915 4.03956 17.2915C4.76102 17.2915 5.36224 18.1579 5.60273 18.5293C6.20395 19.5195 6.92541 19.7671 7.28614 19.7671C7.76711 19.7671 8.12784 19.6433 8.36833 19.5195C8.48857 18.6531 8.84931 17.7866 9.57077 17.2915C6.80516 16.6725 4.76102 15.0634 4.76102 12.3402C4.76102 10.9785 5.36224 9.61694 6.20395 8.62668C6.0837 8.37911 5.96346 7.7602 5.96346 6.89372C5.96346 6.39859 5.96346 5.65589 6.32419 4.9132C6.32419 4.9132 8.0076 4.9132 9.69101 6.52237C10.2922 6.27481 11.1339 6.15102 11.9756 6.15102C12.8173 6.15102 13.659 6.27481 14.3805 6.52237C15.9437 4.9132 17.7473 4.9132 17.7473 4.9132C17.9878 5.65589 17.9878 6.39859 17.9878 6.89372C17.9878 7.88398 17.8676 8.37911 17.7473 8.62668C18.589 9.61694 19.1903 10.8548 19.1903 12.3402C19.1903 15.0634 17.1461 16.6725 14.3805 17.2915C15.102 17.9104 15.5829 19.0244 15.5829 20.1385V23.3568C15.5829 23.7282 15.9437 24.0995 16.4247 23.9757C20.8737 22.119 24 17.6628 24 12.4639C24 5.03698 17.8676 -0.780802 10.653 0.0856765Z" fill="#F3F5F8"/>
</svg>
