<svg width="32" height="48" viewBox="0 0 32 48" fill="none" xmlns="http://www.w3.org/2000/svg">
<g clip-path="url(#clip0_3_2)">
<path fill-rule="evenodd" clip-rule="evenodd" d="M24.3958 23.6529C24.3524 23.9311 24.2466 24.1959 24.0863 24.4275C23.926 24.659 23.7154 24.8512 23.4703 24.9898C22.9766 25.3086 22.5447 25.468 22.1077 25.6274C21.177 25.9488 20.1974 26.2702 19.1613 26.643C18.0687 27.0157 17.0891 27.3885 16.215 27.6585C15.1249 28.0313 14.0888 28.3526 13.1041 28.7254C12.3633 29.0425 11.6674 29.4556 11.0345 29.9544C10.4458 30.4877 9.93212 31.0983 9.50734 31.7695C9.07027 32.515 8.79518 33.4766 8.79518 34.5975C8.79518 36.842 9.34022 38.5491 10.4329 39.6161C11.523 40.7396 13.5438 41.2718 16.5389 41.2718C19.5933 41.2718 21.6655 40.6856 22.7607 39.5107C23.8482 38.3357 24.3932 36.6826 24.3932 34.5487V23.6529H24.3958ZM16.5415 0C21.8891 0 25.815 1.01553 28.3217 3.09802C30.831 5.12908 32.0856 7.74119 32.0856 10.8366V37.2148C32.0856 38.2817 31.8696 39.4567 31.4891 40.737C31.1035 42.0225 30.3425 43.1949 29.1418 44.2592C27.9977 45.3313 26.4166 46.2389 24.3984 46.933C22.3802 47.6272 19.7629 48 16.5441 48C13.3304 48 10.708 47.6272 8.69234 46.933C6.6767 46.2389 5.09298 45.3313 3.9489 44.2592C2.8846 43.3001 2.07834 42.089 1.60418 40.737C1.21853 39.4592 1 38.2843 1 37.2174V33.001C1 30.7565 1.59904 28.674 2.79968 26.8563C4.00032 24.9898 5.68945 23.7095 7.8722 22.9073C8.96229 22.5345 10.2169 22.1618 11.6335 21.681C13.0527 21.1976 14.3588 20.7169 15.6699 20.2927C16.9811 19.8633 18.1252 19.434 19.1048 19.0586C19.6959 18.8221 20.2963 18.6094 20.9044 18.421L21.8866 17.9402C22.2722 17.7268 22.6501 17.4055 23.0332 16.9787C23.4137 16.5545 23.7402 16.0737 24.0153 15.5389C24.306 14.9599 24.4557 14.3203 24.4524 13.6724V11.9627C24.4564 11.3361 24.3249 10.716 24.0667 10.145C23.8508 9.5023 23.4137 8.91612 22.8147 8.38393C22.2156 7.84917 21.3955 7.42239 20.416 7.09845C19.4338 6.78222 18.1278 6.62025 16.6521 6.62025C13.5977 6.62025 11.5795 7.21157 10.4895 8.43535C9.5639 9.50488 9.01885 10.8392 8.91087 12.3329C8.91087 12.6543 8.63835 12.8677 8.30927 12.8677L1.65817 12.9757C1.50018 12.9764 1.34831 12.9146 1.23563 12.8039C1.12296 12.6931 1.05859 12.5423 1.05656 12.3844V10.8418C1.05656 9.3429 1.33166 7.95458 1.93069 6.62025C2.5323 5.28334 3.46042 4.16497 4.71248 3.20086C5.96711 2.24189 7.60482 1.44231 9.56647 0.907552C11.4767 0.26481 13.8214 0 16.5466 0H16.5415Z" fill="#F3F5F8"/>
</g>
<defs>
<clipPath id="clip0_3_2">
<rect width="32" height="48" fill="white"/>
</clipPath>
</defs>
</svg>
