<svg width="219" height="219" viewBox="0 0 219 219" fill="none" xmlns="http://www.w3.org/2000/svg">
<path d="M160.181 89.8053C160.181 89.6214 160.188 89.4418 160.188 89.2578C160.188 56.7517 146.207 30.4016 128.96 30.4016C123.621 30.4016 118.595 32.9332 114.202 37.3899C113.59 38.0178 112.859 38.5169 112.052 38.8576C111.244 39.1984 110.376 39.3739 109.5 39.3739C108.623 39.3739 107.756 39.1984 106.948 38.8576C106.141 38.5169 105.41 38.0178 104.798 37.3899C100.403 32.9332 95.3789 30.4016 90.0396 30.4016C72.7934 30.4016 58.8102 56.7517 58.8102 89.2578C58.8102 89.4418 58.8168 89.6214 58.8168 89.8053C33.3077 96.4739 16.425 108.022 16.425 121.16C16.425 141.807 58.0963 152.862 109.5 152.862C160.904 152.862 202.575 141.809 202.575 121.16C202.575 108.022 185.692 96.4739 160.181 89.8053Z" fill="#317B6A"/>
<path d="M168.429 151.568C129.142 160.166 89.8557 160.166 50.5693 151.568C47.2733 151.568 44.8512 154.87 45.644 158.287L51.7234 181.768C52.2841 184.186 54.3164 185.885 56.6487 185.885L83.969 188.48C85.4253 188.618 86.897 188.662 88.3468 188.456C92.7377 187.832 96.8593 185.655 99.7939 182.068C102.661 178.562 105.97 176.556 109.498 176.556C113.026 176.556 116.335 178.562 119.202 182.068C122.136 185.657 126.258 187.832 130.649 188.456C132.099 188.662 133.57 188.62 135.027 188.48L162.347 185.885C164.679 185.885 166.714 184.186 167.272 181.768L173.352 158.287C174.147 154.87 171.727 151.568 168.429 151.568ZM94.1481 173.387C93.4933 177.872 85.4122 180.25 76.0959 178.702C66.7797 177.153 59.7563 172.263 60.4111 167.778C61.066 163.293 69.1471 160.912 78.4633 162.463C87.7796 164.013 94.8029 168.902 94.1481 173.387ZM142.904 178.702C133.588 180.25 125.505 177.87 124.852 173.387C124.197 168.902 131.22 164.011 140.537 162.463C149.853 160.915 157.936 163.295 158.589 167.778C159.241 172.263 152.22 177.153 142.904 178.702Z" fill="#317B6A"/>
</svg>
